<svg xmlns="http://www.w3.org/2000/svg" viewBox="255 240 690 130" role="img" aria-label="TEKTON"><g transform="translate(262.9,269.2) scale(0.15688)"><path d="M0 0 C6.0056 0.3435 12.0021 0.5034 18.0156 0.6057 C19.7487 0.6383 21.4818 0.6709 23.2148 0.7036 C25.801 0.752 28.3867 0.7963 30.9731 0.8254 C42.1997 0.9537 52.6115 1.9827 63.5859 4.4221 C64.505 4.6161 65.4241 4.8101 66.3711 5.01 C68.6331 5.4892 70.8909 5.9849 73.1484 6.4846 C78.8963 7.7392 84.5504 8.7166 90.3984 9.3596 C96.719 10.1184 102.1233 11.9041 108.0391 14.1995 C111.7935 15.4937 115.4274 16.2354 119.3359 16.9221 C124.8729 17.9304 129.0474 19.4399 133.9258 22.1682 C137.2296 23.7255 140.6149 24.5703 144.1484 25.4221 C149.4546 26.7115 153.8891 28.3971 158.543 31.2698 C160.7117 32.493 162.7674 33.2066 165.1484 33.9221 C169.1163 35.1345 172.1741 36.9382 175.6094 39.2307 C177.6286 40.4478 179.547 41.2216 181.7734 41.9846 C185.3446 43.2189 187.6584 45.0069 190.5859 47.4221 C192.5719 48.4491 194.5775 49.3906 196.6211 50.2971 C199.0387 51.6813 200.6468 53.4248 202.5859 55.4221 C204.32 56.8788 206.0712 58.3153 207.8359 59.7346 C221.5031 70.8289 221.5031 70.8289 225.5859 75.4221 C225.5859 76.0821 225.5859 76.7421 225.5859 77.4221 C226.1389 77.64 226.692 77.8578 227.2617 78.0823 C230.3245 79.8479 232.4499 82.2473 234.7734 84.8596 C235.0126 85.1242 235.0126 85.1242 236.2229 86.4631 C240.1732 90.8699 243.9271 95.417 247.6133 100.0471 C249.5859 102.4221 249.5859 102.4221 251.6875 104.469 C253.611 106.4479 254.7558 108.2333 256.0234 110.6721 C257.6544 113.7282 259.3453 116.6907 261.2109 119.6096 C263.2305 122.7868 264.9018 126.0538 266.5859 129.4221 C266.9056 129.8759 266.9056 129.8759 268.5234 132.1721 C270.756 135.6901 272.1424 139.1529 273.5586 143.0549 C274.5859 145.4221 274.5859 145.4221 276.0859 147.1838 C278.7242 151.1206 279.0951 155.8295 279.959 160.428 C280.7743 164.4775 281.7689 168.0354 283.5547 171.7698 C286.0302 177.0648 287.0982 182.4459 288.1484 188.1721 C288.3575 189.2925 288.5666 190.4128 288.782 191.5671 C290.3095 200.1091 291.4662 208.6709 292.3984 217.2971 C292.4604 217.8538 292.4604 217.8538 292.7737 220.6711 C294.5601 238.8065 293.3834 256.1683 290.8149 274.1711 C290.3319 277.5753 289.8777 280.9825 289.4258 284.3909 C289.1215 286.5916 288.8156 288.7922 288.5078 290.9924 C288.3753 291.9936 288.2429 292.9948 288.1064 294.0264 C287.1401 300.6302 285.2893 306.3322 282.5859 312.4221 C281.4691 315.2762 280.654 317.8833 280.2695 320.926 C279.1114 330.0812 275.7219 337.2975 271.5859 345.4221 C271.069 346.4766 270.5521 347.531 270.0195 348.6174 C268.8089 350.986 267.5336 353.195 266.0859 355.4221 C264.6149 357.7337 263.3147 359.9646 262.0859 362.4221 C260.1682 366.2577 257.9185 369.8275 255.5859 373.4221 C255.2785 373.9042 255.2785 373.9042 253.7227 376.344 C251.615 379.3803 249.3654 381.9816 246.8359 384.6721 C243.6284 388.1418 240.5567 391.6359 237.6484 395.3596 C230.112 404.9487 221.8532 414.7786 211.5859 421.4221 C207.5844 424.2885 203.7414 427.2497 200.0859 430.5471 C197.1026 433.1567 194.0703 434.833 190.4844 436.4885 C188.5859 437.4221 188.5859 437.4221 185.6484 439.4846 C182.9826 441.1712 181.1049 441.9707 178.1484 442.8596 C174.2606 444.0539 171.5917 445.6955 168.3984 448.1643 C165.7013 450.0361 162.7771 451.1959 159.7578 452.4573 C157.5859 453.4221 157.5859 453.4221 154.3359 455.4221 C150.0986 457.9507 145.4171 459.0549 140.707 460.4182 C138.1159 461.2516 136.0495 462.1388 133.7109 463.4846 C128.8952 466.1189 123.5212 466.7256 118.1719 467.6135 C114.5859 468.4221 114.5859 468.4221 111.8035 469.9106 C108.2416 471.5839 105.4264 472.0291 101.5195 472.4143 C100.1425 472.5607 98.7654 472.7075 97.3884 472.8545 C97.0318 472.8905 97.0318 472.8905 95.227 473.0726 C82.8255 474.3362 70.863 476.136 58.8008 479.3713 C49.8144 481.7149 40.5033 481.8644 31.2734 482.4221 C29.2291 482.5466 27.1848 482.6719 25.1406 482.7991 C23.2783 482.9148 21.4159 483.0279 19.5535 483.1409 C17.4541 483.2897 15.3545 483.4468 13.2617 483.6701 C4.7181 484.5701 -3.7958 484.5861 -12.375 484.5901 C-14.0129 484.5933 -15.6508 484.5967 -17.2887 484.6002 C-20.7128 484.6061 -24.1369 484.608 -27.561 484.6074 C-31.0285 484.6073 -34.4959 484.6142 -37.9634 484.6279 C-73.0215 484.7645 -73.0215 484.7645 -88.1772 482.8958 C-92.9952 482.303 -97.8159 482.1484 -102.6641 481.9846 C-112.6072 481.5582 -122.3685 480.3393 -131.9954 477.7197 C-141.3254 475.1953 -150.7084 474.2145 -160.2952 473.2681 C-174.7236 471.8209 -174.7236 471.8209 -181.5193 468.3296 C-184.5108 466.8969 -187.5941 466.493 -190.8516 465.9846 C-196.523 464.9452 -200.9385 463.469 -205.9492 460.676 C-208.7498 459.2513 -211.538 458.3475 -214.5391 457.4221 C-219.0671 455.9901 -222.6963 454.2412 -226.6094 451.5784 C-228.4008 450.4306 -230.1263 449.6395 -232.1016 448.8596 C-235.4141 447.4221 -235.4141 447.4221 -237.7266 445.4221 C-240.4212 443.4168 -242.1007 442.8358 -245.2891 441.9846 C-249.5201 440.8358 -252.4079 439.304 -255.832 436.6096 C-257.4141 435.4221 -257.4141 435.4221 -260.4766 433.9221 C-263.91 432.1689 -266.4872 429.9221 -269.4141 427.4221 C-270.4247 426.7621 -271.4353 426.1021 -272.4766 425.4221 C-275.5165 423.3524 -277.8195 421.0167 -280.4141 418.4221 C-281.3357 417.8356 -282.2574 417.2491 -283.207 416.6448 C-286.7365 414.1986 -289.378 411.54 -292.2266 408.3596 C-292.7465 407.7882 -293.2664 407.2167 -293.802 406.6279 C-297.7738 402.2265 -301.5414 397.6771 -305.2539 393.0549 C-307.4857 390.3348 -309.8018 387.717 -312.1641 385.1096 C-312.9053 384.2898 -313.6465 383.4699 -314.4102 382.6252 C-315.582 381.3369 -316.7593 380.0532 -317.9492 378.7815 C-321.0588 375.32 -322.6933 371.7502 -324.4492 367.512 C-325.4141 365.4221 -325.4141 365.4221 -327.4141 362.9221 C-329.7716 359.9752 -330.9644 356.9953 -332.4141 353.5354 C-333.4141 351.4221 -333.4141 351.4221 -335.4141 349.1096 C-338.1117 345.4847 -339.1077 341.6632 -340.3867 337.3596 C-341.4141 334.4221 -341.4141 334.4221 -342.9141 332.1252 C-345.0318 328.3088 -345.58 324.4363 -346.3516 320.1721 C-348.3272 309.9429 -348.3272 309.9429 -350.5391 305.6096 C-353.3778 299.8658 -353.7376 293.7172 -354.4141 287.4221 C-354.526 286.4158 -354.638 285.4096 -354.7534 284.3728 C-355.4214 278.3659 -356.0608 272.3574 -356.668 266.344 C-357.0757 262.3723 -357.537 258.4386 -358.1914 254.5002 C-360.705 238.3468 -357.9839 222.1246 -355.9749 206.0337 C-355.5906 202.9407 -355.2445 199.8469 -354.9294 196.7461 C-354.1877 189.5768 -353.4241 183.0122 -350.4766 176.3596 C-348.1857 170.9082 -346.7607 165.7635 -345.8516 159.9221 C-345.008 154.5915 -343.8431 150.5853 -340.6016 146.2151 C-339.2221 144.1323 -338.6104 142.1909 -337.9141 139.7971 C-336.8102 136.1508 -335.3424 133.9594 -332.7305 131.1292 C-331.0621 128.9658 -330.0761 126.7343 -328.9766 124.2346 C-328.5538 123.2768 -328.1309 122.3191 -327.6953 121.3323 C-326.8825 119.4861 -326.0699 117.6397 -325.2578 115.7932 C-320.2365 105.5209 -311.8157 97.7915 -303.7969 89.8206 C-301.2419 87.2489 -298.7894 84.6049 -296.3516 81.9221 C-295.9333 81.4632 -295.9333 81.4632 -293.8164 79.1409 C-292.2747 77.3961 -290.775 75.6127 -289.332 73.7854 C-283.8225 66.9967 -276.2386 61.8138 -269.4141 56.4221 C-268.6368 55.7879 -267.8595 55.1537 -267.0586 54.5002 C-262.9184 51.1653 -258.9358 48.4837 -254.1094 46.2502 C-252.4141 45.4221 -252.4141 45.4221 -250.4766 43.9221 C-247.7287 41.9237 -244.7487 40.7876 -241.6328 39.4573 C-239.4141 38.4221 -239.4141 38.4221 -236.5391 36.4221 C-232.9308 34.1129 -229.3716 32.8777 -225.3359 31.4924 C-222.4502 30.4353 -219.743 29.1949 -216.9766 27.8596 C-212.1916 25.6143 -207.51 24.3294 -202.3359 23.2932 C-199.3206 22.3943 -196.9828 20.9903 -194.2979 19.3828 C-191.0081 17.7051 -187.5199 17.1543 -183.9141 16.4846 C-178.0231 15.2998 -172.4983 13.8565 -166.8516 11.7971 C-160.9878 9.7473 -155.4053 8.7901 -149.2617 8.2324 C-142.0504 7.5225 -135.1091 5.8932 -128.0759 4.1858 C-127.6361 4.0798 -127.6361 4.0798 -125.4102 3.5432 C-124.6386 3.3517 -123.867 3.1602 -123.072 2.9629 C-115.3867 1.3993 -107.6961 1.15 -99.8789 0.887 C-98.6634 0.8438 -97.4478 0.8007 -96.1955 0.7563 C-92.2477 0.6189 -88.2997 0.4883 -84.3516 0.3596 C-82.9929 0.3147 -81.6342 0.2697 -80.2756 0.2247 C-26.506 -1.5414 -26.506 -1.5414 0 0 Z M-42.2266 124.2971 C-46.3982 124.8951 -50.5624 125.4551 -54.7578 125.8596 C-68.6037 127.1973 -82.5252 128.9469 -95.0859 135.2659 C-97.2912 136.3611 -99.4613 137.1915 -101.7891 137.9846 C-105.3841 139.4103 -107.4346 141.024 -110.4141 143.4221 C-111.8824 144.0522 -113.363 144.6541 -114.8516 145.2346 C-119.0597 147.0072 -121.3254 149.1249 -124.0898 152.7073 C-125.4141 154.4221 -125.4141 154.4221 -127.8516 156.7971 C-131.3885 160.4203 -134.376 164.3776 -137.4141 168.4221 C-138.0676 169.2819 -138.7212 170.1417 -139.3945 171.0276 C-146.7375 180.8703 -152.4438 190.049 -155.5078 202.0276 C-156.5833 206.0562 -158.0232 209.8639 -159.582 213.7268 C-161.4931 219.9175 -161.5796 226.4094 -161.6172 232.8401 C-161.6229 233.6192 -161.6286 234.3983 -161.6345 235.201 C-161.6438 236.8405 -161.6504 238.4801 -161.6543 240.1196 C-161.664 242.586 -161.695 245.0516 -161.7266 247.5178 C-161.8089 259.8145 -160.2673 270.6908 -155.375 282.094 C-154.4451 284.347 -153.733 286.5873 -153.0391 288.9221 C-151.6506 293.1686 -149.604 296.693 -147.2266 300.4612 C-145.8028 302.7871 -144.4675 305.1151 -143.1641 307.5081 C-142.7717 308.2253 -142.3793 308.9426 -141.9751 309.6816 C-141.1973 311.1099 -140.4259 312.5416 -139.6616 313.9771 C-137.6943 317.5635 -136.1076 320.3728 -132.4141 322.4221 C-131.7541 322.4221 -131.0941 322.4221 -130.4141 322.4221 C-130.2078 322.979 -130.0016 323.5359 -129.7891 324.1096 C-128.2284 326.7344 -126.2969 328.2671 -123.9102 330.1331 C-122.4141 331.4221 -122.4141 331.4221 -120.6016 333.9846 C-117.9066 336.9875 -115.3184 337.9662 -111.6289 339.4612 C-109.4141 340.4221 -109.4141 340.4221 -106.6016 342.3596 C-87.8829 354.4717 -64.731 356.6811 -43.0996 358.218 C-40.8393 358.3898 -38.5897 358.5955 -36.3359 358.8362 C-30.5172 359.4291 -25.7643 359.3329 -20.0859 357.9495 C-16.9636 357.3332 -13.9696 357.2262 -10.7891 357.1096 C4.9761 356.1804 20.6406 352.9412 34.5859 345.4221 C35.8913 344.8634 37.2028 344.3186 38.5234 343.7971 C41.8251 342.3147 44.5982 340.4563 47.5859 338.4221 C48.6172 337.9477 49.6484 337.4734 50.7109 336.9846 C53.9818 335.207 55.3461 333.362 57.5859 330.4221 C59.5685 328.7348 61.5692 327.0685 63.5859 325.4221 C71.8961 317.9867 77.5588 308.2513 82.5859 298.4221 C82.9662 297.7118 83.3465 297.0016 83.7383 296.2698 C85.9274 292.098 87.4634 287.9273 88.8672 283.4338 C89.5859 281.4221 89.5859 281.4221 91.1484 279.0471 C100.3235 262.2927 97.4857 229.0184 93.3164 210.7737 C92.0955 206.8432 90.4521 203.1088 88.7891 199.3479 C87.7208 196.7501 87.0313 194.3353 86.3984 191.6096 C82.7356 178.6855 71.1063 165.4279 61.5859 156.4221 C59.0824 153.9797 56.8105 151.7509 54.8359 148.8596 C52.0863 145.8808 49.4533 144.885 45.7422 143.3909 C43.5859 142.4221 43.5859 142.4221 41.1484 140.3596 C38.0034 137.9816 35.0772 137.256 31.2812 136.3284 C28.5859 135.4221 28.5859 135.4221 25.4062 133.4885 C20.9674 130.8712 16.3451 129.896 11.3359 128.8596 C10.3517 128.6505 9.3675 128.4415 8.3535 128.2261 C-7.9214 124.9363 -25.6782 121.8827 -42.2266 124.2971 Z " fill="#EAF1E7" transform="translate(2881.4140625,46.577880859375)"/><path d="M0 0 C0.9351 -0.0021 1.8702 -0.0041 2.8336 -0.0062 C6.0025 -0.0119 9.1713 -0.0104 12.3402 -0.009 C14.6208 -0.0116 16.9014 -0.0146 19.182 -0.018 C25.4768 -0.0261 31.7715 -0.0279 38.0663 -0.0286 C44.149 -0.0298 50.2316 -0.0366 56.3143 -0.0427 C72.6156 -0.0588 88.9169 -0.0647 105.2182 -0.0694 C112.9252 -0.0718 120.6323 -0.0754 128.3394 -0.0791 C154.7067 -0.092 181.0741 -0.1027 207.4414 -0.1061 C209.0973 -0.1064 210.7531 -0.1066 212.4089 -0.1068 C214.0688 -0.107 215.7287 -0.1072 217.3886 -0.1075 C220.7187 -0.1079 224.0489 -0.1084 227.3791 -0.1088 C228.2047 -0.1089 229.0304 -0.109 229.8811 -0.1091 C256.6683 -0.1128 283.4555 -0.1287 310.2426 -0.152 C338.545 -0.1766 366.8474 -0.1903 395.1497 -0.1915 C398.254 -0.1917 401.3582 -0.1919 404.4625 -0.1921 C405.2269 -0.1922 405.9912 -0.1923 406.7788 -0.1923 C419.1021 -0.1935 431.4254 -0.2045 443.7487 -0.219 C456.1246 -0.2334 468.5004 -0.2366 480.8763 -0.2286 C487.5864 -0.2245 494.2965 -0.2257 501.0066 -0.2396 C507.1409 -0.2523 513.275 -0.2513 519.4093 -0.2391 C521.6367 -0.2371 523.8641 -0.2403 526.0916 -0.2489 C529.1032 -0.2599 532.1143 -0.2526 535.1259 -0.2405 C536.0047 -0.2481 536.8834 -0.2557 537.7888 -0.2635 C543.7039 -0.2117 543.7039 -0.2117 545.8472 1.5311 C547.5021 3.6024 547.5007 4.7739 547.5001 7.4068 C547.5071 8.2788 547.5141 9.1507 547.5214 10.0491 C547.5137 11.003 547.5061 11.9568 547.4982 12.9395 C547.5018 13.9463 547.5055 14.9531 547.5093 15.9904 C547.5174 19.3266 547.5037 22.6624 547.4892 25.9986 C547.4886 28.3141 547.4892 30.6295 547.4907 32.9449 C547.4906 37.8023 547.4801 42.6594 547.4621 47.5167 C547.4394 53.7433 547.4388 59.9698 547.4456 66.1965 C547.4489 70.98 547.4423 75.7634 547.4324 80.5469 C547.4286 82.8426 547.4274 85.1384 547.429 87.4341 C547.4294 90.6444 547.4168 93.8543 547.4005 97.0645 C547.4018 97.5394 547.4018 97.5394 547.408 99.9427 C547.3653 105.2321 547.1506 109.3123 543.9718 113.7384 C541.1809 115.8446 538.8836 115.4938 535.4208 115.4787 C534.7358 115.4799 534.0507 115.481 533.3449 115.4822 C531.0439 115.4825 528.7436 115.4613 526.4428 115.4403 C524.7953 115.4361 523.1478 115.4334 521.5003 115.4319 C517.9497 115.4258 514.3992 115.4102 510.8486 115.3875 C505.235 115.3517 499.6214 115.3377 494.0077 115.3268 C483.1026 115.3027 472.1977 115.256 461.2928 115.2073 C447.4192 115.1465 433.5455 115.0968 419.6718 115.0653 C414.0909 115.0519 408.5102 115.028 402.9293 114.9959 C399.4569 114.9778 395.9845 114.9679 392.512 114.9601 C390.9015 114.9548 389.291 114.9459 387.6806 114.9334 C385.4819 114.9167 383.2836 114.9124 381.0849 114.9111 C379.8545 114.9054 378.6241 114.8996 377.3565 114.8937 C374.1064 115.1329 371.9591 115.5321 369.1259 117.1314 C367.0094 120.3752 366.8784 123.0355 366.8854 126.8571 C366.8826 128.0324 366.8799 129.2077 366.877 130.4186 C366.8842 131.7109 366.8914 133.0032 366.8988 134.3347 C366.8994 135.7205 366.8991 137.1063 366.8979 138.4921 C366.8973 142.3044 366.9092 146.1166 366.9231 149.9288 C366.9358 154.0386 366.937 158.1485 366.9394 162.2583 C366.9452 169.3813 366.9581 176.5043 366.9755 183.6274 C367.0006 193.9315 367.0128 204.2357 367.0214 214.5399 C367.0356 231.2644 367.0572 247.9888 367.0849 264.7132 C367.0865 265.7145 367.0882 266.7158 367.0899 267.7474 C367.1034 275.8714 367.1172 283.9955 367.1311 292.1195 C367.1432 299.2194 367.1552 306.3193 367.1669 313.4193 C367.1686 314.419 367.1702 315.4188 367.1719 316.4488 C367.1993 333.1087 367.2188 349.7687 367.2327 366.4286 C367.2417 376.7089 367.2578 386.9891 367.283 397.2693 C367.2998 404.3112 367.3096 411.3531 367.3139 418.395 C367.3165 422.4604 367.3226 426.5257 367.3374 430.5911 C367.3508 434.3112 367.3551 438.0312 367.3521 441.7513 C367.3529 443.7377 367.3636 445.7241 367.3747 447.7105 C367.372 448.8884 367.3692 450.0663 367.3664 451.2799 C367.3673 451.7882 367.3673 451.7882 367.372 454.3606 C367.106 457.3549 366.5091 459.4661 365.1259 462.1314 C361.4669 464.5708 358.7566 464.4111 354.5275 464.3854 C353.7464 464.3885 352.9653 464.3916 352.1605 464.3948 C349.5349 464.4028 346.9095 464.3965 344.2838 464.3902 C342.4049 464.3929 340.5259 464.3965 338.647 464.4008 C333.5377 464.41 328.4284 464.4064 323.3191 464.4001 C317.9802 464.395 312.6413 464.3997 307.3024 464.4029 C298.3367 464.4065 289.3711 464.4017 280.4054 464.3922 C270.0279 464.3813 259.6505 464.3848 249.2729 464.3958 C240.3744 464.4049 231.4759 464.4062 222.5773 464.4009 C217.2576 464.3978 211.9378 464.3974 206.6181 464.404 C201.6186 464.4098 196.6193 464.4058 191.6199 464.3942 C189.7808 464.3916 187.9417 464.3924 186.1026 464.3968 C183.6007 464.4022 181.0992 464.3954 178.5973 464.3854 C177.862 464.3899 177.1267 464.3943 176.3691 464.3989 C171.3542 464.3597 171.3542 464.3597 169.1259 462.1314 C168.8745 459.6959 168.8745 459.6959 168.8725 456.5582 C168.8669 455.3659 168.8613 454.1737 168.8555 452.9454 C168.8594 451.6106 168.8634 450.2757 168.8676 448.9409 C168.8647 447.5321 168.861 446.1232 168.8565 444.7144 C168.8464 440.8292 168.8489 436.9441 168.8532 433.0589 C168.8556 428.874 168.8466 424.6892 168.8388 420.5044 C168.8267 413.2482 168.8216 405.992 168.8209 398.7358 C168.8196 388.239 168.8045 377.7422 168.7854 367.2454 C168.7546 350.2093 168.7304 333.1732 168.7125 316.137 C168.712 315.6269 168.712 315.6269 168.7093 313.0451 C168.6975 301.6622 168.6873 290.2793 168.6789 278.8964 C168.6758 274.7699 168.6727 270.6434 168.6696 266.5169 C168.6692 266.0078 168.6692 266.0078 168.6673 263.4315 C168.6542 246.4642 168.6296 229.497 168.5958 212.5298 C168.5755 202.0577 168.5653 191.5857 168.5678 181.1137 C168.5689 173.939 168.5592 166.7645 168.5412 159.5898 C168.5311 155.4475 168.526 151.3053 168.534 147.1629 C168.5411 143.3724 168.5346 139.5821 168.5171 135.7915 C168.5113 133.7673 168.5204 131.743 168.53 129.7187 C168.5217 128.5187 168.5135 127.3186 168.5051 126.0822 C168.5046 125.5643 168.5046 125.5643 168.5026 122.943 C168.0623 119.6567 167.1247 117.7615 165.1259 115.1314 C162.4047 114.519 162.4047 114.519 159.0465 114.5369 C158.4103 114.5342 158.4103 114.5342 155.1906 114.5204 C153.7771 114.5397 152.3636 114.5595 150.9501 114.5797 C149.4633 114.5827 147.9764 114.5835 146.4896 114.5823 C142.4428 114.5852 138.3969 114.6188 134.3503 114.6574 C130.1018 114.6924 125.8533 114.6982 121.6046 114.7069 C113.5347 114.7277 105.465 114.773 97.3952 114.8279 C85.6206 114.907 73.8458 114.9524 62.071 114.9943 C61.6361 114.9959 61.6361 114.9959 59.4354 115.0037 C57.6978 115.0099 55.9602 115.0161 54.2226 115.0222 C49.1836 115.0407 44.1446 115.0673 39.1056 115.1006 C10.87 115.2857 10.87 115.2857 -0.2765 114.8863 C-1.0056 114.8719 -1.7348 114.8575 -2.4861 114.8427 C-5.6853 114.6832 -7.9255 114.1052 -10.7865 112.6467 C-13.8228 108.9884 -13.7658 105.7703 -13.8741 101.1314 C-13.9009 100.3665 -13.9278 99.6016 -13.9554 98.8134 C-14.0174 96.3642 -14.032 93.9183 -14.0353 91.4683 C-14.0402 90.5485 -14.0452 89.6286 -14.0503 88.6809 C-14.0648 85.6696 -14.0717 82.6584 -14.0772 79.6471 C-14.0801 78.6135 -14.0829 77.5799 -14.0858 76.5149 C-14.1007 71.0562 -14.11 65.5975 -14.1144 60.1388 C-14.1199 54.5041 -14.144 48.8697 -14.1723 43.2352 C-14.1909 38.8943 -14.1962 34.5535 -14.1977 30.2127 C-14.2007 28.1346 -14.2087 26.0566 -14.2219 23.9786 C-14.2389 21.0779 -14.2371 18.1777 -14.2306 15.2769 C-14.2398 14.4207 -14.249 13.5645 -14.2585 12.6824 C-14.2257 8.0149 -13.9209 4.9162 -10.8741 1.1314 C-7.509 -0.5511 -3.701 -0.0074 0 0 Z " fill="#EAF1E7" transform="translate(62.87412166595459,55.86857223510742)"/><path d="M0 0 C1.3814 2.1766 1.4664 3.5349 1.4744 6.1082 C1.4794 6.5576 1.4794 6.5576 1.5044 8.8314 C1.4999 9.8149 1.4954 10.7984 1.4908 11.8116 C1.4942 12.3304 1.4942 12.3304 1.5116 14.956 C1.5299 18.3944 1.526 21.8324 1.5203 25.2708 C1.5249 27.6559 1.5302 30.041 1.5362 32.4261 C1.5452 37.4289 1.5427 42.4314 1.5328 47.4342 C1.5213 53.8516 1.5415 60.2686 1.5707 66.686 C1.589 71.6127 1.5888 76.5393 1.5831 81.4661 C1.5829 83.8324 1.589 86.1988 1.6013 88.5651 C1.6162 91.8716 1.6056 95.177 1.5884 98.4835 C1.5981 99.4649 1.6078 100.4464 1.6177 101.4575 C1.5458 108.0481 1.5458 108.0481 -0.6946 111.289 C-4.5186 113.742 -7.9757 113.8367 -12.4543 113.8325 C-13.5884 113.8339 -14.7226 113.8353 -15.891 113.8367 C-17.1373 113.8331 -18.3836 113.8295 -19.6677 113.8258 C-21.0047 113.8255 -22.3417 113.8257 -23.6788 113.8262 C-27.3561 113.8265 -31.0335 113.8206 -34.7108 113.8137 C-38.6754 113.8073 -42.64 113.8067 -46.6046 113.8055 C-53.4756 113.8026 -60.3465 113.7961 -67.2174 113.7874 C-77.156 113.7749 -87.0946 113.7688 -97.0332 113.7645 C-113.1632 113.7574 -129.2931 113.7466 -145.423 113.7328 C-146.3887 113.7319 -147.3543 113.7311 -148.3492 113.7302 C-156.1848 113.7235 -164.0203 113.7166 -171.8559 113.7096 C-178.7051 113.7036 -185.5543 113.6976 -192.4035 113.6917 C-193.368 113.6909 -194.3325 113.6901 -195.3262 113.6892 C-211.3951 113.6756 -227.464 113.6658 -243.5329 113.6588 C-253.4493 113.6543 -263.3656 113.6463 -273.2819 113.6337 C-280.0734 113.6253 -286.8649 113.6204 -293.6563 113.6183 C-297.5778 113.6169 -301.4992 113.6139 -305.4206 113.6065 C-309.0081 113.5998 -312.5954 113.5976 -316.1829 113.5991 C-318.1004 113.5987 -320.018 113.5934 -321.9355 113.5878 C-323.0696 113.5892 -324.2037 113.5906 -325.3722 113.592 C-326.3528 113.5911 -327.3333 113.5902 -328.3436 113.5892 C-330.6875 113.7014 -332.6718 114.0447 -334.9133 114.7122 C-335.8772 117.9802 -336.0772 120.9947 -336.1503 124.3954 C-336.1767 125.5369 -336.2031 126.6784 -336.2303 127.8546 C-336.2533 129.0838 -336.2763 130.313 -336.3 131.5794 C-336.3128 132.2132 -336.3128 132.2132 -336.3773 135.4203 C-336.4293 138.1017 -336.4792 140.7831 -336.5258 143.4647 C-336.5861 146.89 -336.6604 150.3149 -336.7382 153.7399 C-336.8099 157.0196 -336.8665 160.2995 -336.925 163.5794 C-336.954 164.8046 -336.9831 166.0298 -337.013 167.2921 C-337.03 168.4399 -337.0469 169.5877 -337.0644 170.7704 C-337.0836 171.7753 -337.1028 172.7803 -337.1225 173.8157 C-336.8866 177.0811 -336.1653 179.6919 -334.9133 182.7122 C-332.5258 183.906 -331.0673 183.8392 -328.402 183.8425 C-327.9243 183.8443 -327.9243 183.8443 -325.507 183.8535 C-324.4501 183.8524 -323.3932 183.8514 -322.3043 183.8503 C-321.1872 183.8531 -320.0702 183.8559 -318.9192 183.8588 C-315.1506 183.8672 -311.3819 183.8685 -307.6132 183.87 C-304.9216 183.8746 -302.2299 183.8797 -299.5383 183.8854 C-293.7292 183.8969 -287.9201 183.9051 -282.111 183.9115 C-272.9311 183.9218 -263.7512 183.9424 -254.5713 183.9646 C-251.4322 183.9721 -248.293 183.9795 -245.1539 183.9869 C-244.7616 183.9878 -244.7616 183.9878 -242.7765 183.9925 C-233.8415 184.0134 -224.9066 184.0323 -215.9716 184.0501 C-215.5631 184.051 -215.5631 184.051 -213.4959 184.0551 C-200.256 184.0814 -187.016 184.1 -173.7761 184.1167 C-160.1898 184.1341 -146.6036 184.163 -133.0174 184.2016 C-124.6336 184.225 -116.2498 184.239 -107.866 184.2409 C-102.121 184.2431 -96.3762 184.256 -90.6312 184.2774 C-87.3152 184.2895 -83.9993 184.295 -80.6832 184.2907 C-77.0897 184.2868 -73.4967 184.3012 -69.9032 184.3203 C-68.853 184.3147 -67.8028 184.3092 -66.7208 184.3035 C-57.8169 184.3852 -57.8169 184.3852 -53.9133 187.7122 C-51.5966 191.6844 -51.6224 195.6916 -51.6386 200.1771 C-51.6361 200.5441 -51.6361 200.5441 -51.6231 202.4012 C-51.6093 204.8175 -51.6102 207.2335 -51.6125 209.6497 C-51.6086 211.3346 -51.6043 213.0194 -51.5995 214.7042 C-51.5921 218.2313 -51.5923 221.7584 -51.5976 225.2855 C-51.6034 229.8015 -51.5864 234.3172 -51.5633 238.8331 C-51.5485 242.311 -51.5476 245.7888 -51.5508 249.2667 C-51.5502 250.9317 -51.545 252.5966 -51.5349 254.2615 C-51.5226 256.5904 -51.5294 258.9185 -51.541 261.2474 C-51.5333 261.9322 -51.5257 262.6171 -51.5178 263.3226 C-51.5651 267.6324 -52.2619 270.302 -54.9133 273.7122 C-57.8743 276.3546 -59.705 277.0861 -63.6578 277.0702 C-64.6143 277.0737 -65.5708 277.0772 -66.5562 277.0808 C-67.6041 277.0694 -68.6519 277.0579 -69.7315 277.0461 C-70.2892 277.046 -70.2892 277.046 -73.1115 277.0453 C-76.8627 277.0409 -80.6134 277.015 -84.3644 276.9893 C-87.0482 276.982 -89.7319 276.9758 -92.4156 276.9712 C-98.2013 276.9591 -103.9868 276.9365 -109.7724 276.9072 C-118.1418 276.8651 -126.5111 276.8434 -134.8806 276.8274 C-148.4649 276.8013 -162.0492 276.7648 -175.6335 276.7188 C-176.4466 276.7161 -177.2597 276.7133 -178.0975 276.7105 C-187.1715 276.6797 -196.2454 276.6469 -205.3193 276.6125 C-208.6106 276.6 -211.9018 276.5876 -215.1931 276.5753 C-215.5991 276.5738 -215.5991 276.5738 -217.6541 276.566 C-231.1872 276.5157 -244.7204 276.4808 -258.2536 276.4579 C-266.6039 276.4431 -274.9539 276.4146 -283.3041 276.3686 C-289.0233 276.3381 -294.7424 276.3218 -300.4617 276.3168 C-303.7636 276.3134 -307.065 276.3011 -310.3668 276.2758 C-313.9431 276.2493 -317.5186 276.2472 -321.095 276.2514 C-322.1429 276.2377 -323.1907 276.224 -324.2703 276.2099 C-331.2623 276.2546 -331.2623 276.2546 -334.5427 278.5608 C-337.2835 282.8631 -337.0366 287.6207 -336.9667 292.5782 C-336.9531 293.7093 -336.9395 294.8403 -336.9254 296.0056 C-336.9046 297.2121 -336.8839 298.4185 -336.8625 299.6615 C-336.8531 300.2863 -336.8531 300.2863 -336.8053 303.448 C-336.7528 306.7563 -336.6945 310.0643 -336.6349 313.3724 C-336.5894 316.0752 -336.5551 318.7781 -336.5205 321.4811 C-336.4767 324.708 -336.4188 327.9347 -336.3625 331.1615 C-336.3478 332.374 -336.3331 333.5865 -336.318 334.8357 C-336.2949 335.9573 -336.2718 337.0789 -336.248 338.2345 C-336.2398 338.7284 -336.2398 338.7284 -336.1985 341.2279 C-335.9133 343.7122 -335.9133 343.7122 -333.9133 346.7122 C-326.2589 348.1088 -318.4865 347.8361 -310.7291 347.7989 C-309.2977 347.7957 -307.8664 347.793 -306.435 347.7908 C-303.3352 347.7849 -300.2355 347.7758 -297.1358 347.7642 C-292.0916 347.7453 -287.0473 347.7335 -282.0031 347.7225 C-275.6286 347.7082 -269.2542 347.6919 -262.8798 347.6734 C-250.3615 347.6371 -237.8433 347.6132 -225.325 347.5939 C-223.3528 347.5908 -221.3807 347.5877 -219.4086 347.5845 C-216.4205 347.5798 -213.4323 347.5751 -210.4441 347.5704 C-199.19 347.5527 -187.9359 347.5336 -176.6818 347.513 C-175.6535 347.5112 -174.6251 347.5093 -173.5656 347.5073 C-156.8794 347.4764 -140.1933 347.4308 -123.5071 347.3806 C-106.3725 347.3296 -89.2378 347.2976 -72.1031 347.2825 C-61.5345 347.2725 -50.9662 347.2471 -40.3976 347.202 C-33.1619 347.1725 -25.9262 347.1612 -18.6904 347.1643 C-14.5135 347.1655 -10.3369 347.1585 -6.1601 347.1297 C-2.3382 347.1035 1.483 347.1003 5.3049 347.1155 C6.6889 347.117 8.0731 347.1099 9.4571 347.0935 C21.094 346.9635 21.094 346.9635 24.4027 349.9592 C26.1137 352.7563 26.7111 354.1225 26.7082 357.3555 C26.7138 357.8069 26.7138 357.8069 26.7422 360.0914 C26.7289 361.0692 26.7156 362.0471 26.702 363.0545 C26.7075 364.0941 26.7131 365.1336 26.7188 366.2047 C26.7306 369.6374 26.7063 373.0687 26.6805 376.5013 C26.6788 378.8859 26.6788 381.2706 26.6806 383.6552 C26.6789 388.6503 26.6602 393.645 26.6287 398.64 C26.589 405.0507 26.5847 411.4609 26.5922 417.8717 C26.5953 422.7941 26.5832 427.7164 26.5661 432.6388 C26.559 435.0032 26.5559 437.3676 26.5567 439.7319 C26.555 443.0311 26.5336 446.3297 26.5067 449.6288 C26.5096 450.6106 26.5125 451.5925 26.5155 452.6042 C26.5099 453.0528 26.5099 453.0528 26.4811 455.323 C26.4774 456.1028 26.4737 456.8826 26.4698 457.686 C25.9776 460.2893 25.1264 461.0572 23.0867 462.7122 C20.0103 463.0077 17.1363 463.1161 14.0583 463.0926 C13.1187 463.0972 12.1791 463.1019 11.211 463.1067 C8.0326 463.1187 4.8546 463.1092 1.6762 463.0999 C-0.6135 463.1041 -2.9032 463.1096 -5.1929 463.1162 C-11.5083 463.1308 -17.8235 463.1264 -24.1388 463.1191 C-30.2428 463.1134 -36.3467 463.1246 -42.4506 463.134 C-55.7106 463.1537 -68.9706 463.156 -82.2306 463.1508 C-93.8344 463.1462 -105.4383 463.1468 -117.0421 463.1526 C-118.5967 463.1534 -120.1513 463.1541 -121.7059 463.1549 C-124.0483 463.156 -126.3908 463.1572 -128.7332 463.1584 C-150.5199 463.1691 -172.3066 463.1738 -194.0933 463.1659 C-194.5042 463.1657 -194.5042 463.1657 -196.5836 463.165 C-203.258 463.1625 -209.9323 463.1599 -216.6067 463.1573 C-242.6479 463.1472 -268.689 463.1556 -294.7302 463.1788 C-323.9667 463.2049 -353.2032 463.2177 -382.4397 463.2106 C-385.5546 463.2099 -388.6695 463.2092 -391.7844 463.2086 C-392.1679 463.2085 -392.1679 463.2085 -394.1087 463.2081 C-405.7072 463.2058 -417.3056 463.2138 -428.904 463.2269 C-442.0879 463.2417 -455.2717 463.2427 -468.4555 463.2248 C-475.188 463.216 -481.9202 463.2142 -488.6527 463.2294 C-494.8073 463.2432 -500.9617 463.2387 -507.1163 463.2192 C-509.3511 463.2154 -511.5859 463.2185 -513.8207 463.2288 C-516.8425 463.2418 -519.8632 463.2306 -522.8849 463.2128 C-523.7665 463.2225 -524.6482 463.2321 -525.5566 463.2421 C-531.3104 463.172 -531.3104 463.172 -533.9538 461.1561 C-535.2727 457.7967 -535.3269 454.6644 -535.2936 451.1097 C-535.2982 450.3364 -535.3029 449.5631 -535.3077 448.7663 C-535.3197 446.1596 -535.3102 443.5534 -535.301 440.9466 C-535.3051 439.0651 -535.3106 437.1836 -535.3173 435.3021 C-535.3318 430.1197 -535.3275 424.9374 -535.3201 419.755 C-535.3154 414.1708 -535.3279 408.5865 -535.3381 403.0023 C-535.3553 392.0579 -535.3561 381.1137 -535.3509 370.1693 C-535.3469 361.2774 -535.3483 352.3854 -535.3537 343.4935 C-535.3544 342.2296 -535.3552 340.9658 -535.3559 339.6636 C-535.3575 337.0964 -535.359 334.5291 -535.3605 331.9619 C-535.3704 314.7165 -535.3745 297.4712 -535.3669 280.2259 C-535.3666 279.5513 -535.3663 278.8767 -535.366 278.1816 C-535.3636 272.7029 -535.361 267.2241 -535.3583 261.7454 C-535.3482 240.3697 -535.3566 218.9942 -535.3798 197.6185 C-535.4059 173.614 -535.4187 149.6095 -535.4116 125.6049 C-535.4081 112.8907 -535.4104 100.1765 -535.4279 87.4622 C-535.4426 76.6397 -535.4433 65.8173 -535.4258 54.9948 C-535.4173 49.4693 -535.4152 43.9439 -535.4305 38.4184 C-535.4442 33.3654 -535.4397 28.3127 -535.4202 23.2596 C-535.4164 21.4266 -535.4195 19.5935 -535.4298 17.7605 C-535.4429 15.2781 -535.4315 12.7971 -535.4138 10.3148 C-535.4235 9.5949 -535.4331 8.8749 -535.4431 8.1332 C-535.3968 4.9981 -535.0654 2.9614 -533.421 0.269 C-529.807 -1.9745 -526.4131 -1.8414 -522.2884 -1.7984 C-521.8464 -1.8017 -521.8464 -1.8017 -519.61 -1.8184 C-516.6272 -1.8357 -513.6451 -1.8244 -510.6622 -1.8135 C-508.5106 -1.82 -506.359 -1.8284 -504.2074 -1.8383 C-498.2783 -1.8606 -492.3493 -1.8579 -486.4202 -1.8512 C-480.0322 -1.8483 -473.6442 -1.8684 -467.2562 -1.8857 C-456.1815 -1.9125 -445.1068 -1.9246 -434.032 -1.9264 C-422.4104 -1.9283 -410.7889 -1.9381 -399.1673 -1.9584 C-398.4449 -1.9596 -397.7226 -1.9609 -396.9783 -1.9622 C-394.046 -1.9673 -391.1138 -1.9725 -388.1815 -1.9778 C-361.4455 -2.0258 -334.7096 -2.0547 -307.9736 -2.0717 C-282.7304 -2.0877 -257.4872 -2.115 -232.2441 -2.1557 C-231.4667 -2.1569 -230.6893 -2.1582 -229.8884 -2.1595 C-225.9728 -2.1658 -222.0573 -2.1721 -218.1418 -2.1784 C-217.3692 -2.1797 -216.5965 -2.1809 -215.8004 -2.1822 C-214.2424 -2.1847 -212.6844 -2.1872 -211.1264 -2.1898 C-186.3159 -2.23 -161.5054 -2.2618 -136.6949 -2.2914 C-129.4294 -2.3001 -122.1638 -2.3091 -114.8983 -2.3189 C-99.6152 -2.3395 -84.3322 -2.3571 -69.0491 -2.3655 C-62.7273 -2.369 -56.4056 -2.374 -50.0838 -2.3834 C-44.2998 -2.3919 -38.5158 -2.3957 -32.7318 -2.3957 C-30.6363 -2.3965 -28.5407 -2.399 -26.4452 -2.4034 C-23.602 -2.409 -20.7589 -2.4085 -17.9157 -2.4064 C-17.5067 -2.4079 -17.5067 -2.4079 -15.4371 -2.4157 C-3.5466 -2.3871 -3.5466 -2.3871 0 0 Z " fill="#EAF1E7" transform="translate(1174.913269996643,57.28775119781494)"/><path d="M0 0 C3.0687 -0.0614 6.1375 -0.1047 9.2065 -0.1466 C10.6506 -0.1715 12.0947 -0.2053 13.5384 -0.2488 C15.5225 -0.3082 17.5075 -0.3343 19.4924 -0.3589 C20.6133 -0.3849 21.7342 -0.4108 22.8891 -0.4375 C27.0498 0.3481 28.4434 1.7089 30.899 5.1308 C31.3771 8.0396 31.5479 10.3532 31.4868 13.2533 C31.4897 14.0667 31.4926 14.88 31.4955 15.718 C31.4991 18.4415 31.4669 21.1634 31.4349 23.8867 C31.4302 25.8399 31.4278 27.7931 31.4274 29.7463 C31.4218 33.9513 31.4003 38.1558 31.3666 42.3607 C31.3133 49.0078 31.2949 55.6548 31.2812 62.3021 C31.2553 72.8147 31.2057 83.327 31.146 93.8394 C31.0398 112.6682 30.969 131.4972 30.9142 150.3262 C30.894 156.9358 30.8617 163.5452 30.8197 170.1546 C30.7953 174.264 30.7788 178.3734 30.7643 182.4829 C30.7557 184.3901 30.7437 186.2973 30.7279 188.2044 C30.7068 190.8058 30.698 193.4069 30.6922 196.0084 C30.6829 196.7647 30.6737 197.5211 30.6642 198.3003 C30.6694 202.3585 31.0898 205.479 32.899 209.1308 C36.1509 209.4786 37.5837 209.3367 40.3639 207.5215 C41.1799 206.8151 41.9958 206.1087 42.8365 205.3808 C48.255 200.8268 53.9671 197.0762 59.9654 193.3457 C62.6468 191.661 65.2725 189.8997 67.899 188.1308 C68.6235 187.6668 69.3479 187.2027 70.0943 186.7246 C73.5407 184.4952 76.583 182.4546 79.4615 179.5058 C82.1451 176.8911 84.6391 175.6583 87.9928 174.0879 C90.613 172.7724 92.6687 171.0266 94.899 169.1308 C101.9473 163.6419 109.2611 158.6591 116.9615 154.1308 C120.8798 151.8103 124.5012 149.2754 128.1061 146.498 C131.289 144.071 134.6596 141.9283 138.024 139.7637 C141.7456 137.3371 145.2671 134.9029 148.5865 131.9433 C151.4782 129.3715 154.4151 127.8357 157.899 126.1308 C159.3718 124.9142 160.8433 123.6957 162.2858 122.4433 C165.2732 120.0129 168.6138 118.1279 171.899 116.1308 C173.7984 114.9491 175.6941 113.7613 177.5865 112.5683 C178.4773 112.0102 179.368 111.452 180.2858 110.8769 C182.9522 109.0953 185.4017 107.1401 187.899 105.1308 C189.112 104.3348 190.3405 103.5616 191.5865 102.8183 C197.4548 99.2174 203.171 95.3393 208.524 91.0058 C212.8037 87.6271 217.4761 84.895 222.274 82.3183 C226.3684 80.027 229.8728 77.0265 233.4693 74.0332 C235.8572 72.1636 238.2714 70.639 240.899 69.1308 C246.165 66.0055 251.0006 62.5715 255.7975 58.7637 C258.4045 56.7381 261.1435 54.947 263.899 53.1308 C264.6828 52.4708 265.4665 51.8108 266.274 51.1308 C268.4916 49.4413 270.348 48.3691 272.8365 47.1933 C276.776 45.3086 279.607 42.9935 282.899 40.1308 C285.7306 38.1553 288.6243 36.3034 291.5475 34.4668 C292.5091 33.8609 293.4708 33.2551 294.4615 32.6308 C295.3703 32.0637 296.2791 31.4965 297.2154 30.9121 C299.9118 29.1224 302.3806 27.1604 304.899 25.1308 C306.1325 24.3136 307.3817 23.5195 308.649 22.7558 C315.3464 18.6392 321.7967 14.2723 328.0514 9.5097 C330.5971 7.6098 333.2473 5.8785 335.899 4.1308 C336.4972 3.574 337.0953 3.0171 337.7115 2.4433 C344.267 -1.4899 354.8865 -0.0112 362.2834 -0.0006 C363.6345 -0.0022 364.9857 -0.0043 366.3368 -0.0068 C370.0464 -0.0123 373.756 -0.0117 377.4656 -0.01 C381.5026 -0.0093 385.5395 -0.0143 389.5765 -0.0186 C397.5815 -0.0262 405.5865 -0.0284 413.5915 -0.0289 C423.18 -0.0298 432.7685 -0.0365 442.357 -0.0433 C465.5253 -0.0593 488.6937 -0.0652 511.8621 -0.07 C522.8184 -0.0724 533.7747 -0.076 544.7309 -0.0797 C582.2257 -0.0926 619.7205 -0.1033 657.2153 -0.1067 C659.5683 -0.1069 661.9213 -0.1072 664.2742 -0.1074 C666.6329 -0.1076 668.9915 -0.1078 671.3502 -0.1081 C676.0821 -0.1085 680.8141 -0.1089 685.546 -0.1094 C686.7192 -0.1095 687.8925 -0.1096 689.1013 -0.1097 C727.1771 -0.1134 765.2529 -0.1293 803.3288 -0.1526 C843.5744 -0.1772 883.82 -0.1909 924.0657 -0.1921 C928.4797 -0.1923 932.8938 -0.1925 937.3079 -0.1927 C938.3947 -0.1928 939.4816 -0.1928 940.6014 -0.1929 C958.119 -0.194 975.6364 -0.2051 993.154 -0.2196 C1010.7436 -0.234 1028.3332 -0.2372 1045.9228 -0.2292 C1056.382 -0.2247 1066.8411 -0.2286 1077.3002 -0.2444 C1084.2781 -0.2541 1091.2559 -0.253 1098.2338 -0.243 C1102.215 -0.2376 1106.1961 -0.237 1110.1773 -0.2495 C1113.7956 -0.2608 1117.4135 -0.2584 1121.0318 -0.2448 C1122.9534 -0.2412 1124.875 -0.2524 1126.7966 -0.2641 C1127.9336 -0.2571 1129.0706 -0.2501 1130.2421 -0.2429 C1131.2214 -0.2431 1132.2007 -0.2434 1133.2096 -0.2436 C1136.6975 0.242 1139.393 1.6248 1141.899 4.1308 C1142.0405 7.218 1142.1171 10.284 1142.152 13.373 C1142.1667 14.3438 1142.1814 15.3146 1142.1966 16.3148 C1142.2437 19.5451 1142.2829 22.7754 1142.3209 26.0058 C1142.3348 27.108 1142.3486 28.2101 1142.3629 29.3457 C1142.4363 35.185 1142.5038 41.0243 1142.5665 46.8638 C1142.6322 52.8885 1142.7169 58.9128 1142.8061 64.9372 C1142.8714 69.5732 1142.9228 74.2093 1142.9704 78.8455 C1142.9956 81.0654 1143.0259 83.2853 1143.0616 85.505 C1143.1103 88.6212 1143.1393 91.737 1143.1637 94.8535 C1143.1822 95.764 1143.2008 96.6745 1143.2199 97.6126 C1143.2392 103.4273 1142.6264 108.8999 1139.899 114.1308 C1136.2385 116.5712 1134.5253 116.3736 1130.1628 116.3579 C1129.8185 116.358 1129.8185 116.358 1128.0765 116.3588 C1125.7642 116.3574 1123.4522 116.3417 1121.14 116.3262 C1119.4843 116.3223 1117.8286 116.3194 1116.1729 116.3173 C1112.6042 116.311 1109.0357 116.2984 1105.4671 116.2812 C1099.8238 116.2542 1094.1805 116.2423 1088.5372 116.2329 C1075.5349 116.2088 1062.5328 116.1647 1049.5306 116.1204 C1037.6231 116.0801 1025.7157 116.0439 1013.8081 116.024 C1008.1991 116.014 1002.5901 115.9943 996.9811 115.9671 C993.489 115.9522 989.9968 115.9456 986.5046 115.9412 C984.8865 115.9375 983.2684 115.9303 981.6503 115.9193 C979.4389 115.9049 977.2278 115.9028 975.0163 115.9038 C973.7794 115.8994 972.5426 115.8949 971.2683 115.8903 C967.7807 116.1393 965.0891 116.701 961.899 118.1308 C960.8483 121.283 960.7769 123.4742 960.7816 126.7831 C960.7812 127.3753 960.7812 127.3753 960.7793 130.3721 C960.7836 131.6797 960.7878 132.9873 960.7922 134.3344 C960.7932 135.7325 960.7938 137.1305 960.7939 138.5286 C960.7956 142.3792 960.8035 146.2298 960.8123 150.0805 C960.8207 154.2298 960.8233 158.3792 960.8265 162.5285 C960.8328 169.7214 960.8426 176.9143 960.8544 184.1072 C960.8714 194.5113 960.881 204.9155 960.8883 215.3196 C960.9003 232.2044 960.9152 249.0891 960.9335 265.9739 C960.9345 266.9849 960.9356 267.996 960.9368 269.0377 C960.9524 283.39 960.971 297.7423 960.9908 312.0945 C960.9915 312.5999 960.9915 312.5999 960.995 315.1575 C960.9964 316.167 960.9978 317.1765 960.9992 318.2167 C961.0222 335.0359 961.0375 351.8551 961.0465 368.6743 C961.0524 379.0551 961.0648 389.4358 961.0855 399.8166 C961.0992 406.9267 961.1057 414.0368 961.1065 421.1469 C961.1072 425.2527 961.1113 429.3584 961.124 433.4641 C961.1356 437.22 961.138 440.9757 961.133 444.7316 C961.1328 446.7397 961.1425 448.7478 961.1525 450.7558 C961.1492 451.9428 961.1458 453.1298 961.1423 454.3527 C961.1436 455.3794 961.1449 456.4061 961.1463 457.4638 C960.8919 460.2074 960.397 461.8343 958.899 464.1308 C955.8844 465.6382 952.7725 465.2788 949.4656 465.278 C948.6901 465.2817 947.9146 465.2854 947.1157 465.2892 C944.5032 465.3002 941.8907 465.304 939.2782 465.3078 C937.4109 465.3141 935.5435 465.3208 933.6762 465.3278 C928.5936 465.3452 923.5111 465.3557 918.4285 465.364 C915.2562 465.3691 912.0838 465.3752 908.9115 465.3815 C898.9947 465.4005 889.0779 465.4148 879.1611 465.4231 C867.697 465.4329 856.2331 465.4592 844.7691 465.4996 C835.9182 465.5297 827.0672 465.5445 818.2162 465.5479 C812.9248 465.5502 807.6337 465.5593 802.3423 465.5843 C797.3675 465.6075 792.3929 465.6119 787.418 465.6016 C785.589 465.6011 783.76 465.6075 781.9311 465.6211 C779.4401 465.6387 776.9504 465.6318 774.4595 465.6186 C774.0949 465.6241 774.0949 465.6241 772.2498 465.6518 C767.3613 465.5889 767.3613 465.5889 765.2136 463.4607 C763.5756 460.5576 763.5283 458.685 763.5355 455.3583 C763.5307 454.1726 763.526 452.9868 763.5211 451.7651 C763.5312 450.4612 763.5413 449.1572 763.5517 447.8137 C763.5519 446.4155 763.5507 445.0173 763.5482 443.6191 C763.5454 439.7726 763.5613 435.9263 763.5802 432.0798 C763.5972 427.9332 763.5969 423.7866 763.5986 419.6399 C763.6039 412.453 763.6199 405.2662 763.643 398.0793 C763.6762 387.6828 763.691 377.2864 763.7008 366.8898 C763.7172 350.0156 763.7454 333.1415 763.7826 316.2673 C763.7837 315.7622 763.7837 315.7622 763.7893 313.206 C763.7983 309.1125 763.8074 305.019 763.8164 300.9255 C763.8413 289.6586 763.8637 278.3917 763.8851 267.1247 C763.887 266.116 763.889 265.1073 763.8909 264.068 C763.9226 247.259 763.9464 230.4499 763.9652 213.6408 C763.9773 203.2684 763.9971 192.896 764.0268 182.5237 C764.0468 175.4187 764.0599 168.3137 764.0675 161.2087 C764.0722 157.1069 764.0802 153.0051 764.0971 148.9033 C764.1124 145.1499 764.1186 141.3966 764.1175 137.6432 C764.1193 135.6389 764.1311 133.6346 764.1432 131.6303 C764.1411 130.4419 764.1389 129.2536 764.1367 128.0292 C764.1391 127.0035 764.1415 125.9777 764.144 124.9209 C763.8857 121.9788 763.1326 119.7996 761.899 117.1308 C757.1312 116.3598 752.5785 116.0117 747.7509 116.0308 C747.4087 116.0314 747.4087 116.0314 745.677 116.0346 C743.4025 116.0399 741.1281 116.0525 738.8536 116.0649 C737.2154 116.0701 735.5772 116.0748 733.939 116.0791 C730.4206 116.089 726.9023 116.1018 723.384 116.1168 C717.8205 116.1399 712.257 116.1532 706.6934 116.1645 C690.8761 116.1979 675.059 116.2396 659.2418 116.3022 C650.499 116.3367 641.7562 116.3606 633.0133 116.3724 C627.4825 116.3805 621.952 116.4018 616.4213 116.4326 C612.9827 116.4486 609.5442 116.4521 606.1056 116.4519 C604.5112 116.4543 602.9168 116.4619 601.3225 116.475 C599.1458 116.4922 596.9699 116.4908 594.7932 116.4849 C593.5754 116.4889 592.3575 116.493 591.1028 116.4972 C587.5885 116.0953 585.7082 115.2432 582.899 113.1308 C581.2695 109.8719 581.7881 106.2848 581.8172 102.7055 C581.8203 101.8339 581.8234 100.9622 581.8265 100.0641 C581.8337 98.1674 581.8431 96.2707 581.8544 94.374 C581.8718 91.3735 581.8821 88.3731 581.8904 85.3725 C581.9148 76.8399 581.9504 68.3074 581.995 59.7749 C582.0217 54.5595 582.0388 49.3442 582.0498 44.1289 C582.0561 42.1393 582.0661 40.1498 582.0799 38.1603 C582.0991 35.3784 582.106 32.5968 582.1102 29.8149 C582.119 28.9909 582.1277 28.1668 582.1368 27.3178 C582.1301 23.4539 582.1123 20.3992 579.899 17.1308 C573.7872 17.2582 571.1877 19.2273 566.7975 23.3652 C564.3556 25.6362 561.7146 27.3495 558.899 29.1308 C554.4238 32.0502 550.0142 35.0018 545.774 38.2558 C543.3296 40.122 540.9027 41.7678 538.2115 43.2558 C535.1345 44.9976 532.6237 46.8952 529.899 49.1308 C524.4668 52.873 518.8853 56.4341 513.149 59.6933 C510.899 61.1308 510.899 61.1308 509.024 63.0683 C506.7647 65.2612 504.3819 66.6315 501.6256 68.1269 C499.899 69.1308 499.899 69.1308 497.3365 71.1933 C494.899 73.1308 494.899 73.1308 491.899 74.5683 C488.899 76.1308 488.899 76.1308 486.524 78.5058 C483.2997 81.7302 479.8043 83.8225 475.899 86.1308 C471.4485 88.7871 467.3084 91.5544 463.274 94.8183 C459.9083 97.5145 457.0523 98.8849 452.899 100.1308 C452.569 101.1208 452.239 102.1108 451.899 103.1308 C449.6061 104.5605 449.6061 104.5605 446.7115 106.0058 C442.2039 108.3587 438.6912 110.7796 434.899 114.1308 C432.913 115.4849 430.9109 116.8154 428.899 118.1308 C427.3141 119.2535 425.7309 120.3788 424.149 121.5058 C420.7491 123.9037 417.3101 126.1065 413.7115 128.1933 C409.9934 130.3767 406.8612 132.7625 403.6608 135.6347 C399.5359 139.1377 394.8409 141.9122 390.2662 144.7832 C384.5613 148.3671 379.0897 152.1417 373.6725 156.1465 C370.0174 158.7616 366.2341 161.1367 362.4068 163.4902 C359.7609 165.2212 357.3525 167.139 354.899 169.1308 C352.899 170.4642 350.899 171.7975 348.899 173.1308 C348.1153 173.7908 347.3315 174.4508 346.524 175.1308 C344.2764 176.8433 342.3621 177.9357 339.8365 179.1308 C336.5278 180.7141 334.4223 182.4394 331.899 185.1308 C329.9121 186.4836 327.9116 187.8165 325.899 189.1308 C325.5072 189.4608 325.5072 189.4608 323.524 191.1308 C321.3065 192.8204 319.4501 193.8925 316.9615 195.0683 C313.022 196.9531 310.1911 199.2682 306.899 202.1308 C304.3175 203.9267 301.7055 205.6369 299.024 207.2793 C294.8594 209.8334 290.9312 212.5509 287.0475 215.5137 C284.6113 217.3474 282.1391 219.121 279.649 220.8808 C278.8395 221.4532 278.03 222.0255 277.1959 222.6152 C275.1462 223.9678 273.1204 225.0915 270.899 226.1308 C270.399 228.8183 270.399 228.8183 270.899 232.1308 C272.6594 233.6518 274.5123 234.6648 276.5514 235.7832 C279.0383 237.2108 281.1669 238.8335 283.399 240.6308 C286.1516 242.8178 288.889 244.8152 291.899 246.6308 C295.781 248.974 299.2706 251.7 302.8209 254.5137 C305.4207 256.5368 308.1498 258.3164 310.899 260.1308 C312.6739 261.4169 314.4443 262.7092 316.2115 264.0058 C319.6233 266.5023 323.0541 268.9335 326.5865 271.2558 C330.0677 273.5479 333.4094 275.9688 336.7272 278.4902 C342.026 282.4929 347.3732 286.4469 352.899 290.1308 C355.7557 292.0353 358.5088 294.0342 361.274 296.0683 C364.4623 298.4035 367.6414 300.6502 371.024 302.6933 C374.8496 305.0138 378.2963 307.7188 381.7975 310.498 C384.4045 312.5235 387.1435 314.3147 389.899 316.1308 C391.5657 317.4642 393.2324 318.7975 394.899 320.1308 C396.8919 321.4749 398.8932 322.8063 400.899 324.1308 C409.8013 330.2422 409.8013 330.2422 413.524 333.2558 C416.1721 335.3464 418.9424 337.06 421.8365 338.7871 C424.3294 340.4112 426.5765 342.2714 428.899 344.1308 C430.9922 345.6049 433.0971 347.0625 435.2115 348.5058 C439.5742 351.4956 443.8482 354.5668 448.0436 357.7871 C450.7274 359.7307 453.5616 361.3977 456.4303 363.0527 C456.915 363.4085 457.3997 363.7643 457.899 364.1308 C457.899 364.7908 457.899 365.4508 457.899 366.1308 C458.6003 366.3783 459.3015 366.6258 460.024 366.8808 C465.2384 369.148 469.5075 372.5758 473.899 376.1308 C478.6562 379.9135 483.4388 383.0447 488.7975 385.9082 C491.818 387.6655 494.2562 389.8484 496.899 392.1308 C497.7447 392.6258 498.5903 393.1208 499.4615 393.6308 C501.899 395.1308 501.899 395.1308 504.3365 397.6308 C507.0719 400.2994 509.4849 401.4573 512.899 403.1308 C514.8574 404.4939 516.7395 405.9362 518.6295 407.3926 C521.1873 409.3516 523.7886 411.2425 526.399 413.1308 C529.6932 415.5183 532.9681 417.925 536.2115 420.3808 C538.4702 422.0863 540.7276 423.6832 543.0865 425.2558 C545.899 427.1308 545.899 427.1308 548.3365 429.1308 C550.3792 430.7252 552.2094 431.9042 554.4615 433.1308 C557.5871 434.9494 559.3843 436.6162 561.899 439.1308 C563.7571 440.3621 565.6611 441.501 567.5709 442.6504 C570.2199 444.3349 572.7003 446.1849 575.2115 448.0683 C579.8458 451.5101 584.5858 454.2066 589.7818 456.709 C591.899 458.1308 591.899 458.1308 592.7858 460.1972 C592.899 462.1308 592.899 462.1308 591.5865 463.8183 C588.8821 465.9218 587.2186 466.2564 583.8574 466.2606 C583.4321 466.2623 583.4321 466.2623 581.2797 466.271 C580.8098 466.2704 580.8098 466.2704 578.4314 466.267 C577.437 466.2694 576.4426 466.2718 575.418 466.2743 C572.0641 466.281 568.7102 466.2803 565.3563 466.2795 C562.9601 466.2825 560.5639 466.2858 558.1677 466.2894 C550.2773 466.2987 542.387 466.2965 534.4967 466.291 C533.8256 466.2905 533.1544 466.2901 532.463 466.2896 C519.1328 466.2804 505.8027 466.2643 492.4726 466.2363 C489.5408 466.2303 486.6089 466.2243 483.6771 466.2185 C482.9484 466.217 482.2197 466.2156 481.469 466.2141 C469.6783 466.1914 457.8878 466.1997 446.0971 466.2204 C433.9865 466.2411 421.8763 466.2315 409.7657 466.1933 C402.9683 466.1726 396.1714 466.1653 389.3739 466.1924 C382.9739 466.2165 376.575 466.2028 370.175 466.1604 C367.8301 466.1514 365.4852 466.156 363.1404 466.1753 C341.701 466.3384 341.701 466.3384 333.9296 459.193 C333.2595 458.5125 332.5894 457.832 331.899 457.1308 C330.3523 455.9228 328.7918 454.7321 327.2115 453.5683 C323.6431 450.7745 320.2488 447.8215 316.86 444.8144 C314.3155 442.6299 311.6544 440.6404 308.9537 438.6543 C306.8008 437.058 304.6932 435.4127 302.5865 433.7558 C298.276 430.3807 293.8462 427.1901 289.3795 424.0254 C287.0041 422.2111 284.9928 420.2561 282.899 418.1308 C282.1565 417.6977 281.414 417.2646 280.649 416.8183 C277.4245 414.8396 274.8116 412.4662 271.9967 409.9512 C269.4362 407.7292 266.7525 405.7297 264.024 403.7207 C258.9885 399.9533 254.1339 395.9438 249.2506 391.9824 C241.9422 386.0786 241.9422 386.0786 238.4615 383.8183 C236.2467 382.3598 234.7507 380.9825 232.899 379.1308 C231.7278 378.2139 230.5388 377.3193 229.3365 376.4433 C226.1412 374.0849 223.0406 371.6392 219.9615 369.1308 C216.7646 366.5487 213.5377 364.1734 210.0865 361.9433 C206.5655 359.6553 203.8406 357.1441 200.899 354.1308 C195.7645 349.8029 190.5057 345.8261 184.899 342.1308 C183.4529 340.9418 182.0078 339.7512 180.5826 338.5371 C178.6406 336.915 176.6507 335.3662 174.649 333.8183 C171.3983 331.3027 168.1703 328.7623 164.9615 326.1933 C164.1327 325.5333 163.3038 324.8733 162.4498 324.1933 C160.6997 322.7782 158.9687 321.3393 157.2545 319.8808 C156.8246 319.5199 156.8246 319.5199 154.649 317.6933 C153.8808 317.0346 153.1125 316.3759 152.3209 315.6972 C149.438 313.8326 147.3087 313.3721 143.899 313.1308 C139.9135 314.3894 137.4243 315.6056 134.4615 318.5683 C131.7106 321.3192 129.2857 322.5467 125.8131 324.166 C123.2046 325.4809 121.1276 327.2542 118.899 329.1308 C116.899 330.4642 114.899 331.7975 112.899 333.1308 C112.074 333.8115 111.249 334.4921 110.399 335.1933 C107.899 337.1308 107.899 337.1308 104.9615 338.5683 C102.0977 340.0295 99.9454 341.7006 97.5358 343.8066 C95.1054 345.7729 92.4509 347.3207 89.7818 348.9394 C87.3347 350.488 85.1467 352.3084 82.899 354.1308 C82.0534 354.6258 81.2078 355.1208 80.3365 355.6308 C77.899 357.1308 77.899 357.1308 76.0865 359.0683 C74.026 361.0112 72.543 361.8829 70.024 363.0683 C66.0431 364.9482 63.2176 367.2451 59.899 370.1308 C57.913 371.4849 55.9109 372.8154 53.899 374.1308 C50.5463 376.4369 47.2202 378.7796 43.899 381.1308 C42.891 381.8437 41.8829 382.5565 40.8443 383.291 C39.8518 384.0013 38.8592 384.7115 37.8365 385.4433 C36.9174 386.0995 35.9983 386.7556 35.0514 387.4316 C32.899 389.1308 32.899 389.1308 31.899 391.1308 C31.7934 393.3613 31.7529 395.5949 31.7413 397.8279 C31.7362 398.5158 31.7312 399.2038 31.7259 399.9126 C31.7152 401.4083 31.7066 402.9039 31.6998 404.3995 C31.688 406.7655 31.6686 409.1314 31.6467 411.4973 C31.585 418.2248 31.531 424.9522 31.4977 431.6799 C31.4767 435.7932 31.4415 439.9061 31.3969 444.0192 C31.3827 445.588 31.374 447.1569 31.3709 448.7259 C31.366 450.9191 31.3428 453.1114 31.3155 455.3044 C31.3115 455.9287 31.3115 455.9287 31.291 459.0881 C30.899 462.1308 30.899 462.1308 29.8466 463.7972 C26.8686 465.8365 23.8296 465.5438 20.3453 465.5118 C19.569 465.5165 18.7927 465.5212 17.9928 465.526 C15.3833 465.538 12.7742 465.5285 10.1647 465.519 C8.2972 465.5231 6.4297 465.5284 4.5622 465.535 C-0.5162 465.5487 -5.5944 465.5433 -10.6729 465.5338 C-15.9806 465.5262 -21.2883 465.5333 -26.5961 465.538 C-35.5105 465.5434 -44.4248 465.5362 -53.3392 465.522 C-63.6543 465.5056 -73.9692 465.5109 -84.2842 465.5274 C-93.131 465.541 -101.9777 465.543 -110.8245 465.5351 C-116.1124 465.5304 -121.4003 465.5298 -126.6882 465.5397 C-131.659 465.5484 -136.6295 465.5424 -141.6002 465.525 C-143.4276 465.5211 -145.255 465.5222 -147.0824 465.5288 C-149.5709 465.537 -152.0588 465.5268 -154.5473 465.5118 C-155.2758 465.5185 -156.0042 465.5252 -156.7548 465.5321 C-161.5514 465.4757 -161.5514 465.4757 -163.7842 464.0745 C-165.7903 461.1133 -165.5215 458.1095 -165.4969 454.6541 C-165.5032 453.8823 -165.5096 453.1104 -165.5161 452.3152 C-165.5339 449.7074 -165.5301 447.1 -165.5266 444.4922 C-165.5349 442.6123 -165.5445 440.7323 -165.5553 438.8524 C-165.5812 433.6697 -165.5883 428.4871 -165.5923 423.3043 C-165.5999 417.7214 -165.6247 412.1385 -165.6472 406.5556 C-165.6884 395.6115 -165.7133 384.6674 -165.7321 373.7232 C-165.7477 364.8308 -165.7686 355.9383 -165.7935 347.0459 C-165.7971 345.7822 -165.8006 344.5185 -165.8042 343.2165 C-165.8114 340.6496 -165.8186 338.0826 -165.8257 335.5157 C-165.8734 318.27 -165.9155 301.0242 -165.9458 283.7785 C-165.9469 283.1037 -165.9481 282.4289 -165.9494 281.7337 C-165.9589 276.2538 -165.9684 270.7739 -165.9778 265.2939 C-166.0147 243.9184 -166.07 222.5429 -166.1403 201.1675 C-166.2191 177.1644 -166.2847 153.1614 -166.3303 129.1583 C-166.3547 116.4445 -166.3849 103.7308 -166.4304 91.0171 C-166.4689 80.1936 -166.4934 69.37 -166.4997 58.5464 C-166.5033 53.0207 -166.5134 47.4953 -166.5408 41.9697 C-166.5657 36.9153 -166.5722 31.8613 -166.5639 26.8069 C-166.5641 24.9745 -166.5711 23.142 -166.5856 21.3096 C-166.6041 18.8257 -166.5982 16.3431 -166.5859 13.8592 C-166.5972 13.1416 -166.6084 12.424 -166.62 11.6847 C-166.5756 8.144 -166.1517 6.2114 -164.247 3.1872 C-161.406 0.4649 -159.8553 0.5014 -155.9576 0.4916 C-154.6956 0.4763 -153.4336 0.461 -152.1334 0.4453 C-150.7362 0.4535 -149.3391 0.4623 -147.942 0.4714 C-146.4679 0.463 -144.9938 0.4523 -143.5197 0.4397 C-139.5073 0.4114 -135.4955 0.414 -131.4831 0.4219 C-127.2531 0.4251 -123.0232 0.4 -118.7932 0.378 C-110.7436 0.3404 -102.6941 0.3284 -94.6445 0.3254 C-85.6178 0.3207 -76.5913 0.2879 -67.5647 0.2525 C-56.4996 0.2097 -45.4345 0.1731 -34.3694 0.1551 C-33.5864 0.1537 -32.8034 0.1523 -31.9967 0.1509 C-28.1608 0.145 -24.325 0.1433 -20.4891 0.1498 C-13.6574 0.1588 -6.8305 0.1405 0 0 Z " fill="#EAF1E7" transform="translate(1402.1009663939476,54.86915725469589)"/><path d="M0 0 C0.6188 0.8869 1.2375 1.7737 1.875 2.6875 C4.2648 5.1385 6.7007 7.5227 9.1875 9.875 C13.0462 13.9132 16.4258 18.2987 19.875 22.6875 C24.715 28.8168 29.6606 34.8378 34.7244 40.7825 C38.4925 45.2122 42.1665 49.7127 45.8047 54.25 C47.875 56.6875 47.875 56.6875 50.4297 59.2422 C52.5387 61.3512 54.3357 63.4358 56.125 65.8125 C61.8281 73.2523 67.7094 80.4782 74.0625 87.375 C77.3775 90.9751 80.385 94.6109 83.2344 98.582 C86.1333 102.3023 89.448 105.6662 92.7031 109.0742 C94.875 111.6875 94.875 111.6875 95.9219 114.3945 C97.1154 117.2659 98.1361 117.4142 100.875 118.6875 C102.4023 120.6758 102.4023 120.6758 103.8125 123 C106.1724 126.7211 108.7106 129.6064 111.875 132.6875 C113.2083 134.6875 114.5417 136.6875 115.875 138.6875 C116.6484 139.4609 117.4219 140.2344 118.2188 141.0312 C121.6429 144.4554 124.577 148.1872 127.5938 151.9688 C129.8901 154.7055 132.3461 157.1663 134.875 159.6875 C136.6927 161.7117 138.4447 163.7862 140.1875 165.875 C140.4147 166.1415 140.4147 166.1415 141.5645 167.4902 C144.875 171.448 144.875 171.448 144.875 173.6875 C145.4705 173.926 146.0661 174.1645 146.6797 174.4102 C149.3548 175.9666 150.3427 177.5224 152 180.125 C155.4204 185.2226 159.3361 189.5947 163.5156 194.0781 C166.0793 196.9135 168.3295 199.8696 170.5586 202.9688 C171.8505 204.6555 173.2177 206.0942 174.75 207.5625 C175.4513 208.2637 176.1525 208.965 176.875 209.6875 C176.875 210.3475 176.875 211.0075 176.875 211.6875 C177.4319 211.8731 177.9887 212.0588 178.5625 212.25 C181.3801 214.0015 182.656 215.982 184.4336 218.7383 C185.875 220.6875 185.875 220.6875 188.207 223.0039 C191.125 225.9389 193.6085 229.0365 196.125 232.3125 C197.0982 233.5631 198.0722 234.8131 199.0469 236.0625 C199.5258 236.6774 200.0046 237.2923 200.498 237.9258 C206.5001 245.6051 212.7982 252.8856 219.4922 259.9609 C221.6582 262.4394 223.2171 264.8628 224.875 267.6875 C225.6794 268.3269 226.4837 268.9663 227.3125 269.625 C230.2791 272.0127 231.7926 274.5026 233.875 277.6875 C234.9433 278.9092 236.0282 280.1164 237.125 281.3125 C240.9647 285.5551 243.8516 290.2488 246.7852 295.1484 C249.2632 298.1592 251.1327 298.8063 254.875 299.6875 C255.7841 296.586 255.9961 293.8262 255.9869 290.5994 C255.9864 289.5663 255.9859 288.5332 255.9854 287.4688 C255.9798 286.3353 255.9742 285.2019 255.9683 284.0341 C255.9664 282.8288 255.9644 281.6236 255.9624 280.3818 C255.9573 277.7341 255.9504 275.0865 255.9404 272.4388 C255.9241 268.131 255.9146 263.8232 255.906 259.5154 C255.8929 253.2616 255.8766 247.0078 255.8585 240.754 C255.8303 230.8728 255.8136 220.9915 255.799 211.1102 C255.7939 207.7304 255.7887 204.3505 255.7835 200.9706 C255.7822 200.126 255.781 199.2813 255.7796 198.4111 C255.7649 188.7967 255.7484 179.1823 255.7307 169.5679 C255.7299 169.1284 255.7299 169.1284 255.7258 166.9045 C255.6993 152.6519 255.6615 138.3995 255.6205 124.147 C255.5788 109.52 255.5524 94.893 255.5393 80.2659 C255.5307 71.24 255.5096 62.2144 255.4727 53.1886 C255.4484 47.0068 255.4387 40.8252 255.4405 34.6434 C255.4411 31.0742 255.4351 27.5053 255.4116 23.9362 C255.3864 20.071 255.392 16.2062 255.4007 12.3409 C255.3884 11.2075 255.376 10.074 255.3633 8.9062 C255.367 8.3897 255.367 8.3897 255.3856 5.7756 C255.3835 4.8832 255.3815 3.9907 255.3794 3.0712 C256.0452 -0.1313 257.3295 -1.3164 259.875 -3.3125 C265.1623 -4.3583 270.374 -4.4537 275.7575 -4.4217 C276.1332 -4.4215 276.1332 -4.4215 278.0342 -4.4205 C280.529 -4.4178 283.0237 -4.4078 285.5186 -4.3977 C287.3162 -4.3941 289.1138 -4.3909 290.9114 -4.3881 C295.7768 -4.3787 300.6421 -4.3624 305.5074 -4.3437 C308.5475 -4.332 311.5875 -4.3214 314.6276 -4.3109 C324.1412 -4.2778 333.6549 -4.2397 343.1685 -4.1956 C354.1491 -4.1448 365.1296 -4.1106 376.1103 -4.0904 C384.6039 -4.0737 393.0974 -4.0419 401.591 -3.9986 C406.6626 -3.973 411.7341 -3.9541 416.8057 -3.9512 C421.5698 -3.948 426.3335 -3.9261 431.0975 -3.8896 C432.847 -3.8795 434.5966 -3.8762 436.3461 -3.8802 C438.7314 -3.8845 441.1153 -3.8645 443.5004 -3.8382 C443.8479 -3.8418 443.8479 -3.8418 445.6063 -3.8597 C448.662 -3.8021 450.5416 -3.551 453.0515 -1.7557 C455.5051 1.5317 455.4297 4.3457 455.3784 8.29 C455.3842 9.0634 455.39 9.8367 455.396 10.6334 C455.4106 13.2403 455.3967 15.8462 455.3829 18.4531 C455.3875 20.3346 455.3939 22.2162 455.4018 24.0977 C455.4186 29.2801 455.4103 34.4623 455.3979 39.6447 C455.3889 45.229 455.4028 50.8132 455.4138 56.3975 C455.4316 67.3418 455.4277 78.2861 455.4162 89.2304 C455.4071 98.1224 455.4059 107.0143 455.4103 115.9062 C455.4109 117.1701 455.4115 118.434 455.4121 119.7362 C455.4134 122.3034 455.4147 124.8706 455.416 127.4379 C455.4271 150.8434 455.4156 174.2488 455.3946 197.6543 C455.3757 219.03 455.3774 240.4056 455.3965 261.7812 C455.4179 285.7858 455.4263 309.7903 455.414 333.7948 C455.4128 336.3528 455.4115 338.9108 455.4103 341.4688 C455.4096 342.7274 455.409 343.9861 455.4084 345.283 C455.4049 354.1678 455.4108 363.0526 455.4202 371.9375 C455.4314 382.76 455.4284 393.5825 455.4071 404.405 C455.3965 409.9305 455.3925 415.4558 455.4057 420.9813 C455.4175 426.0344 455.4111 431.0871 455.3897 436.1401 C455.3853 437.9732 455.3876 439.8063 455.3972 441.6393 C455.4093 444.1216 455.397 446.6027 455.3784 449.085 C455.3877 449.8049 455.3971 450.5248 455.4067 451.2666 C455.3564 454.5893 455.0737 456.4143 453.0978 459.131 C450.7117 460.8019 449.6745 461.1887 446.8076 461.1937 C446.4049 461.1992 446.4049 461.1992 444.3668 461.2271 C443.9272 461.223 443.9272 461.223 441.7027 461.2022 C440.7643 461.2091 439.8259 461.2161 438.859 461.2232 C435.7067 461.2415 432.5552 461.2312 429.4028 461.2209 C427.146 461.228 424.8892 461.2367 422.6323 461.2471 C416.4959 461.2696 410.3598 461.2666 404.2233 461.2577 C399.1039 461.2526 393.9845 461.2599 388.8651 461.2672 C376.0978 461.2852 363.3307 461.2788 350.5635 461.261 C339.4776 461.2463 328.392 461.261 317.3061 461.2898 C305.9222 461.3192 294.5384 461.3297 283.1544 461.3206 C276.7636 461.3157 270.373 461.3179 263.9822 461.3384 C257.9722 461.3567 251.9627 461.3508 245.9528 461.3262 C243.7461 461.3212 241.5394 461.3247 239.3327 461.3374 C236.3217 461.3533 233.3123 461.3384 230.3013 461.3157 C229.4266 461.3275 228.5519 461.3394 227.6507 461.3516 C221.6625 461.2598 219.0656 459.9895 214.875 455.6875 C213.2578 453.8008 213.2578 453.8008 212 452 C206.1786 443.9466 199.8842 436.4681 193.0742 429.2305 C190.994 426.8251 189.4887 424.414 187.875 421.6875 C187.0706 421.0481 186.2663 420.4087 185.4375 419.75 C182.4954 417.382 180.9154 414.8468 178.875 411.6875 C177.5458 410.35 176.212 409.0171 174.875 407.6875 C173.5817 406.1435 172.3117 404.5799 171.0625 403 C170.3625 402.117 169.6626 401.234 168.9414 400.3242 C167.1163 397.9954 165.3058 395.6563 163.5 393.3125 C160.6468 389.6347 157.7188 386.0223 154.75 382.4375 C153.943 381.463 153.1361 380.4884 152.3047 379.4844 C150.6909 377.6267 149.0108 375.8246 147.2695 374.0859 C145.1822 371.9952 143.4393 369.9312 141.6875 367.5625 C138.9261 363.9347 135.9835 360.5849 132.875 357.25 C129.7506 353.8668 126.9429 350.5091 124.375 346.6875 C121.1326 341.8696 117.3772 337.7296 113.4258 333.4844 C110.1156 329.8549 107.0425 326.0587 103.957 322.2383 C102.1389 320.0108 100.2814 317.8393 98.375 315.6875 C92.6505 309.2095 87.2678 302.4419 81.875 295.6875 C81.2189 294.8677 80.5627 294.0478 79.8867 293.2031 C78.5313 291.5082 77.1799 289.8103 75.832 288.1094 C71.4867 282.6956 66.9423 277.552 62.1875 272.5 C58.3095 268.3782 54.6107 264.2907 51.3242 259.6719 C48.7352 256.1268 45.8837 252.7905 43.0898 249.4062 C41.1741 247.0546 39.328 244.6698 37.5 242.25 C34.2556 238.0368 30.6846 234.1617 27.0674 230.272 C22.433 225.2648 18.1486 220.0045 13.875 214.6875 C12.3966 212.8952 10.9175 211.1035 9.4375 209.3125 C6.6594 205.9299 3.9698 202.502 1.3452 198.999 C-2.7323 193.5722 -7.0276 188.5005 -11.6875 183.5625 C-19.8524 174.9086 -27.1148 166.132 -33.3008 155.9258 C-33.9028 155.1871 -34.5048 154.4485 -35.125 153.6875 C-36.445 153.6875 -37.765 153.6875 -39.125 153.6875 C-40.1226 156.6802 -40.2465 158.6253 -40.2397 161.7491 C-40.2398 162.8017 -40.2399 163.8543 -40.2401 164.9389 C-40.2376 165.5191 -40.2376 165.5191 -40.2251 168.4552 C-40.2238 169.6848 -40.2225 170.9144 -40.2212 172.1812 C-40.2168 175.6006 -40.2078 179.0198 -40.1971 182.4392 C-40.1866 186.1243 -40.182 189.8094 -40.1768 193.4945 C-40.167 199.882 -40.154 206.2695 -40.139 212.657 C-40.1157 222.7479 -40.1027 232.8388 -40.0913 242.9298 C-40.0873 246.3804 -40.0833 249.831 -40.0792 253.2817 C-40.0782 254.144 -40.0771 255.0064 -40.0761 255.8948 C-40.0643 265.7133 -40.0505 275.5317 -40.0356 285.3501 C-40.035 285.7989 -40.035 285.7989 -40.0315 288.0704 C-40.0094 302.6276 -39.9795 317.1847 -39.9477 331.7419 C-39.9153 346.6774 -39.8944 361.6128 -39.8834 376.5483 C-39.8762 385.7668 -39.8594 394.9851 -39.8306 404.2035 C-39.8117 410.5166 -39.8035 416.8296 -39.804 423.1426 C-39.8039 426.7886 -39.7989 430.4344 -39.7808 434.0803 C-39.7614 438.0268 -39.765 441.9732 -39.771 445.9198 C-39.7615 447.0802 -39.7521 448.2406 -39.7424 449.4361 C-39.7478 450.4888 -39.7531 451.5414 -39.7586 452.6259 C-39.757 453.5375 -39.7553 454.4491 -39.7536 455.3883 C-40.125 457.6875 -40.125 457.6875 -41.4399 459.4803 C-44.2326 461.481 -47.3707 461.0988 -50.6787 461.0685 C-51.455 461.0731 -52.2314 461.0778 -53.0312 461.0826 C-55.6408 461.0946 -58.2498 461.0851 -60.8594 461.0757 C-62.7269 461.0797 -64.5943 461.0851 -66.4618 461.0916 C-71.5402 461.1053 -76.6185 461.1 -81.6969 461.0905 C-87.0047 461.0829 -92.3124 461.0899 -97.6201 461.0946 C-106.5345 461.1001 -115.4489 461.0929 -124.3633 461.0786 C-134.6783 461.0623 -144.9932 461.0676 -155.3083 461.0841 C-164.155 461.0977 -173.0017 461.0996 -181.8485 461.0918 C-187.1364 461.0871 -192.4243 461.0865 -197.7123 461.0964 C-202.683 461.105 -207.6536 461.0991 -212.6243 461.0817 C-214.4517 461.0777 -216.2791 461.0789 -218.1064 461.0855 C-220.595 461.0937 -223.0828 461.0835 -225.5713 461.0685 C-226.2998 461.0751 -227.0283 461.0818 -227.7789 461.0887 C-230.5808 461.0558 -232.6336 460.9992 -235.0346 459.4762 C-237.6794 455.1377 -237.2703 449.9497 -237.262 445.0244 C-237.2647 444.2567 -237.2673 443.489 -237.2701 442.698 C-237.2777 440.1165 -237.2783 437.535 -237.2789 434.9535 C-237.2829 433.0876 -237.2874 431.2217 -237.2922 429.3559 C-237.3041 424.2214 -237.3098 419.0869 -237.3144 413.9524 C-237.3203 408.4179 -237.3319 402.8834 -237.3427 397.349 C-237.3672 383.9835 -237.3818 370.618 -237.3947 357.2525 C-237.3984 353.4796 -237.4024 349.7067 -237.4065 345.9338 C-237.4317 322.5171 -237.4538 299.1004 -237.4662 275.6836 C-237.4691 270.2607 -237.4721 264.8377 -237.4751 259.4148 C-237.4755 258.7411 -237.4758 258.0673 -237.4762 257.3732 C-237.4884 235.5117 -237.5193 213.6503 -237.561 191.7889 C-237.605 168.6804 -237.6307 145.5719 -237.6361 122.4634 C-237.6395 109.8643 -237.6514 97.2652 -237.6842 84.6662 C-237.7121 73.9425 -237.7232 63.2189 -237.712 52.4952 C-237.7068 47.0202 -237.7098 41.5456 -237.7345 36.0707 C-237.7568 31.0639 -237.7564 26.0576 -237.7373 21.0508 C-237.7345 19.2346 -237.7402 17.4184 -237.7551 15.6022 C-237.7741 13.1424 -237.7625 10.6846 -237.743 8.2248 C-237.7559 7.5115 -237.7687 6.7983 -237.782 6.0635 C-237.7182 2.4239 -237.3642 0.9429 -234.8413 -1.7515 C-232.2391 -3.2469 -230.9813 -3.8145 -228.0466 -3.8259 C-227.2642 -3.8386 -226.4818 -3.8513 -225.6756 -3.8643 C-224.8273 -3.8579 -223.9789 -3.8515 -223.1049 -3.8449 C-222.1949 -3.8539 -221.285 -3.8628 -220.3474 -3.8719 C-217.2973 -3.8969 -214.2479 -3.8935 -211.1978 -3.8901 C-209.0113 -3.9021 -206.825 -3.9159 -204.6386 -3.9312 C-198.6985 -3.9677 -192.7586 -3.9792 -186.8184 -3.9859 C-180.6036 -3.9964 -174.3889 -4.0279 -168.1742 -4.0567 C-157.7349 -4.1018 -147.2957 -4.1316 -136.8564 -4.1514 C-126.1223 -4.1717 -115.3883 -4.206 -104.6543 -4.2559 C-103.9935 -4.2589 -103.3326 -4.262 -102.6518 -4.2652 C-101.9921 -4.2682 -101.3324 -4.2713 -100.6527 -4.2744 C-89.0455 -4.3281 -77.4383 -4.3702 -65.831 -4.4058 C-60.891 -4.421 -55.951 -4.4397 -51.011 -4.461 C-45.1916 -4.4854 -39.3722 -4.4994 -33.5528 -4.5055 C-31.4175 -4.5093 -29.2822 -4.5165 -27.1469 -4.5274 C-24.2309 -4.5416 -21.3151 -4.5434 -18.3991 -4.542 C-17.9771 -4.5455 -17.9771 -4.5455 -15.8419 -4.5631 C-4.1527 -4.5191 -4.1527 -4.5191 0 0 Z " fill="#EAF1E7" transform="translate(3449.125,59.3125)"/></g><rect x="887.9" y="247.9" width="46.4" height="48.9" rx="0" fill="none" stroke="#4DF000" stroke-width="5.6"/></svg>